<svg width="96" height="96" viewBox="0 0 96 96" fill="none" xmlns="http://www.w3.org/2000/svg" role="img" aria-label="Lavender">
  <circle cx="48" cy="48" r="48" fill="#EDE4FB"/>
  <circle cx="48" cy="48" r="44" fill="none" stroke="#C8A02E" stroke-width="2"/>
  <g stroke="#7C3AED" stroke-width="3" stroke-linecap="round">
    <line x1="40" y1="44" x2="40" y2="74"/>
    <line x1="40" y1="74" x2="32" y2="80"/>
    <line x1="40" y1="74" x2="48" y2="80"/>
  </g>
  <g fill="#8B5CF6">
    <circle cx="40" cy="24" r="5"/>
    <circle cx="34" cy="31" r="4.5"/>
    <circle cx="46" cy="31" r="4.5"/>
    <circle cx="37" cy="38" r="4.5"/>
    <circle cx="43" cy="38" r="4.5"/>
    <circle cx="40" cy="33" r="5"/>
    <circle cx="34" cy="44" r="4"/>
    <circle cx="46" cy="44" r="4"/>
    <circle cx="40" cy="46" r="4"/>
  </g>
  <g fill="#C8A02E">
    <path d="M64 34 l2.4 5.6 5.6 2.4 -5.6 2.4 -2.4 5.6 -2.4 -5.6 -5.6 -2.4 5.6 -2.4 z"/>
  </g>
</svg>
